<?xml version="1.0" encoding="UTF-8"?>
<svg version="1.1" viewBox="0 0 512 512" xmlns="http://www.w3.org/2000/svg" xmlns:cc="http://creativecommons.org/ns#" xmlns:dc="http://purl.org/dc/elements/1.1/" xmlns:rdf="http://www.w3.org/1999/02/22-rdf-syntax-ns#">
 <metadata>
  <rdf:RDF>
   <cc:Work rdf:about="">
    <dc:format>image/svg+xml</dc:format>
    <dc:type rdf:resource="http://purl.org/dc/dcmitype/StillImage"/>
   </cc:Work>
  </rdf:RDF>
 </metadata>
 <defs>
  <linearGradient id="A" x1="256" x2="256" y1="480" y2="32" gradientUnits="userSpaceOnUse">
   <stop stop-color="#2d71e2" offset="0"/>
   <stop stop-color="#fff" stop-opacity=".005" offset="1"/>
  </linearGradient>
  <clipPath id="B">
   <rect width="512" height="512" ry="96" fill="#006efe" opacity=".994"/>
  </clipPath>
 </defs>
 <g clip-path="url(#B)">
  <path d="m0 416h512v96h-512z" fill="#258efb"/>
  <path d="m0 320v96l256 32 256-32v-96z" fill="#44c9c3"/>
  <path d="m0 192.5v127.5l256 128 256-128v-128z" fill="#67fb4f"/>
  <path d="M0 192.5L256 448l256-256V0H0z" fill="#fbe94f"/>
  <path d="M0 0l256 448L512 0z" fill="#fda81f"/>
  <path d="M256 448L384 0H128z" fill="#fc5858"/>
  <path d="M295.195 127.236C298.42 94.198 304 64 304 0h-96c0 64 5.578 94.196 8.803 127.238C224 128 224 144 219.994 156.713l3.482 29.537c2.11-1.356 4.255-2.645 6.48-3.72a65.87 65.87 0 0 1 8.025-3.242 70.9 70.9 0 0 1 8.262-2.18 60.49 60.49 0 0 1 9.783-1.084 60.49 60.49 0 0 1 9.783 1.084c2.775.558 5.536 1.28 8.26 2.18a65.87 65.87 0 0 1 8.025 3.242c2.207 1.068 4.335 2.35 6.432 3.693l3.48-29.512C288 144 288 128 295.195 127.236z" fill="#006efe"/>
  <g fill="#fff">
   <path d="M256 112a60.49 60.49 0 0 0-9.783 1.084 70.87 70.87 0 0 0-8.26 2.18 66.01 66.01 0 0 0-8.025 3.242c-2.618 1.266-5.17 2.723-7.63 4.38-1.913 1.3-3.713 2.8-5.5 4.352l3.2 29.475 2.3-1.826a61.29 61.29 0 0 1 7.63-4.38 66.14 66.14 0 0 1 8.025-3.242 70.87 70.87 0 0 1 8.26-2.18A60.49 60.49 0 0 1 256 144a60.49 60.49 0 0 1 9.783 1.084 70.87 70.87 0 0 1 8.26 2.18 66.01 66.01 0 0 1 8.025 3.242c2.618 1.266 5.17 2.723 7.63 4.38.802.54 1.525 1.24 2.307 1.824l3.2-29.475-5.498-4.35a61.29 61.29 0 0 0-7.63-4.38 66.14 66.14 0 0 0-8.025-3.242 70.87 70.87 0 0 0-8.26-2.18A60.49 60.49 0 0 0 256 112zm0 80a60.49 60.49 0 0 0-9.783 1.084c-11.098 2.23-22.004 7.096-30.982 15.395-7.462 6.753-13.203 16.035-16.973 26.275-5.683 15.728-7.718 33.478-5.193 50.406 1.86 12.216 5.806 23.82 11.025 34.506C240 352 272 352 307.906 319.666c5.22-10.687 9.165-22.3 11.025-34.506 2.524-16.93.5-34.678-5.193-50.406-3.77-10.24-9.5-19.522-16.973-26.275-8.98-8.298-19.884-13.164-30.982-15.395A60.49 60.49 0 0 0 256 192z"/>
  </g>
  <path d="M307.906 319.666l.424-3.748c.096-1.835.06-3.6-.172-5.195s-.654-3.022-1.328-4.176c-.337-.577-.738-1.087-1.207-1.516s-1.007-.776-1.623-1.03a7.81 7.81 0 0 0-2.656-.592c-.898-.04-1.807.068-2.72.31s-1.833.61-2.752 1.092-1.837 1.074-2.75 1.756c-1.827 1.365-3.632 3.092-5.37 5.023s-3.412 4.068-4.977 6.248l-4.322 6.518-3.4 5.834L272 336l-.822-5c-.568-3-1.45-7-2.705-11-.627-2-1.35-4-2.17-5.875s-1.742-3.625-2.77-5.125-2.167-2.75-3.42-3.625c-.626-.437-1.282-.78-1.967-1.016a6.58 6.58 0 0 0-4.289 0c-.685.234-1.34.578-1.967 1.016-1.253.875-2.4 2.125-3.42 3.625s-1.95 3.25-2.77 5.125-1.543 3.875-2.17 5.875c-1.255 4-2.137 8-2.705 11s-.822 5-.822 5-1.13-2.36-3.04-5.812c-.956-1.726-2.107-3.722-3.4-5.834s-2.758-4.337-4.322-6.518-3.238-4.317-4.977-6.248-3.544-3.66-5.37-5.023c-.913-.682-1.83-1.275-2.75-1.756s-1.838-.852-2.752-1.092-1.823-.35-2.72-.31A7.81 7.81 0 0 0 208 304c-.616.255-1.154.603-1.623 1.03s-.87.94-1.207 1.516c-.674 1.154-1.097 2.58-1.328 4.176s-.268 3.36-.172 5.195c.064 1.225.257 2.49.424 3.748 1.696 3.473 3.52 6.854 5.46 10.12 9.47 16.084 22.362 28.615 32.408 44.12 5.656 7.9 9.08 17.613 14.04 26.092 4.958-8.48 8.383-18.193 14.04-26.092 10.047-15.507 22.938-28.037 32.408-44.12 1.94-3.267 3.763-6.648 5.46-10.12z" fill="#0a84ff"/>
  <rect x="112" y="416" width="288" height="48" ry="24" fill="#fff"/>
  <path d="M96 0C42.816 0 0 42.816 0 96v320c0 53.184 42.816 96 96 96h320c53.184 0 96-42.816 96-96V96c0-53.184-42.816-96-96-96zm20 32h280c46.536 0 84 37.464 84 84v280c0 46.536-37.464 84-84 84H116c-46.536 0-84-37.464-84-84V116c0-46.536 37.464-84 84-84z" fill="url(#A)" opacity=".42"/>
 </g>
</svg>
