<svg xmlns="http://www.w3.org/2000/svg" height="512" width="512"><defs><linearGradient y2="32" x2="256" y1="480" x1="256" id="A" gradientUnits="userSpaceOnUse"><stop offset="0" stop-color="#2d71e2"/><stop offset="1" stop-color="#fff" stop-opacity=".005"/></linearGradient><clipPath id="B"><rect width="512" height="512" ry="96" opacity=".994" fill="#006efe" fill-opacity="1" stroke="none"/></clipPath></defs><g fill="none" stroke="#000" stroke-width=".638"><path d="M7773.28 1790.41a793.92 793.92 0 0 0-128.404 14.227c-145.662 29.278-288.8 93.138-406.644 202.053-97.94 88.637-173.3 210.455-222.766 344.865-74.592 206.433-101.296 439.394-68.163 661.582 24.417 160.338 76.2 312.622 144.708 452.89-2.195-16.498-4.72-33.11-5.563-49.193-1.263-24.086-.776-47.245 2.256-68.19s8.6-39.66 17.432-54.807c4.42-7.573 9.685-14.266 15.842-19.893s13.22-10.187 21.302-13.535c11.432-4.735 23.08-7.237 34.863-7.767s23.715.898 35.71 4.05 24.057 8.015 36.12 14.33 24.106 14.1 36.094 23.046c23.975 17.912 47.672 40.583 70.496 65.933s44.784 53.388 65.317 82.006 39.623 57.826 56.73 85.543 32.216 53.924 44.758 76.57c25.085 45.294 39.913 76.29 39.913 76.29s3.333-26.25 10.792-65.625 19.037-91.875 35.504-144.375c8.234-26.25 17.704-52.5 28.48-77.1s22.863-47.578 36.376-67.265 28.444-36.094 44.886-47.578c8.22-5.742 16.824-10.254 25.814-13.33s18.364-4.717 28.147-4.717 19.157 1.64 28.147 4.717 17.593 7.588 25.814 13.33c16.442 11.484 31.374 27.89 44.887 47.578s25.6 42.656 36.376 67.265 20.247 50.86 28.48 77.1c16.467 52.5 28.045 105 35.504 144.375s10.792 65.625 10.792 65.625 14.83-30.995 39.913-76.29c12.542-22.647 27.65-48.854 44.758-76.57s36.196-56.925 56.73-85.543S8167.177 3385.35 8190 3360s46.52-48.02 70.496-65.933c11.987-8.956 24.032-16.73 36.094-23.046s24.125-11.177 36.12-14.33 23.925-4.58 35.71-4.05 23.43 3.032 34.863 7.767c8.084 3.348 15.145 7.908 21.302 13.535s11.422 12.32 15.842 19.893c8.842 15.147 14.4 33.864 17.43 54.807s3.52 44.102 2.256 68.19c-.844 16.082-3.368 32.695-5.563 49.193 68.498-140.267 120.29-292.55 144.708-452.89 33.133-222.188 6.43-455.15-68.163-661.582-49.476-134.4-124.825-256.228-222.766-344.865-117.843-108.916-260.982-172.775-406.644-202.053a793.95 793.95 0 0 0-128.404-14.227z"/><path d="M7594.863 847.767a793.92 793.92 0 0 0-128.404 14.227c-145.662 29.278-288.8 93.138-406.644 202.053-97.94 88.637-173.3 210.455-222.766 344.865-74.592 206.433-101.296 439.394-68.163 661.582 24.417 160.338 76.2 312.622 144.708 452.89-2.195-16.498-4.72-33.11-5.563-49.193-1.263-24.086-.776-47.245 2.256-68.19s8.6-39.66 17.432-54.807c4.42-7.573 9.685-14.266 15.842-19.892s13.22-10.187 21.302-13.535c11.432-4.735 23.08-7.237 34.863-7.767s23.715.898 35.71 4.05 24.057 8.015 36.12 14.33 24.106 14.1 36.094 23.046c23.975 17.912 47.672 40.583 70.496 65.933s44.783 53.388 65.317 82.005 39.623 57.826 56.73 85.543 32.216 53.924 44.758 76.57c25.084 45.294 39.913 76.29 39.913 76.29s3.333-26.25 10.792-65.625 19.037-91.875 35.504-144.375c8.234-26.25 17.704-52.5 28.48-77.1s22.863-47.578 36.376-67.265 28.444-36.094 44.886-47.578c8.22-5.742 16.824-10.254 25.814-13.33s18.364-4.717 28.147-4.717 19.157 1.64 28.147 4.717 17.593 7.588 25.814 13.33c16.442 11.484 31.374 27.9 44.886 47.578s25.6 42.656 36.376 67.265 20.247 50.86 28.48 77.1c16.467 52.5 28.045 105 35.504 144.375s10.792 65.625 10.792 65.625 14.83-30.995 39.914-76.29c12.542-22.647 27.65-48.854 44.758-76.57s36.196-56.925 56.73-85.543 42.495-56.656 65.318-82.005 46.52-48.02 70.495-65.933c11.987-8.956 24.032-16.73 36.094-23.046s24.125-11.177 36.12-14.33 23.925-4.58 35.71-4.05 23.43 3.032 34.863 7.767c8.084 3.348 15.145 7.908 21.302 13.535s11.42 12.32 15.842 19.892c8.842 15.147 14.4 33.864 17.43 54.807s3.52 44.102 2.256 68.19c-.844 16.082-3.368 32.695-5.563 49.193 68.498-140.267 120.29-292.55 144.708-452.89 33.133-222.188 6.43-455.15-68.163-661.582-49.476-134.4-124.825-256.228-222.766-344.865-117.843-108.916-260.982-172.775-406.644-202.053a793.95 793.95 0 0 0-128.405-14.227z"/></g><g clip-path="url(#B)"><path d="M0 432h512v80H0z" fill="#258efb"/><path d="M0 336v96l256 32 256-32v-96z" fill="#44c9c3"/><path d="M0 208v128l256 128 256-128V208z" fill="#67fb4f"/><path d="M0 208.5L256 464l256-256V16H0z" fill="#fbe94f"/><path d="M0 16l256 448L512 16V0H0z" fill="#fda81f"/><path d="M256 464L400 0H112z" fill="#fc5858"/><rect width="320" height="32" x="96" y="448" ry="16" fill="#fff"/><path d="M96 0C42.816 0 0 42.816 0 96v320c0 53.184 42.816 96 96 96h320c53.184 0 96-42.816 96-96V96c0-53.184-42.816-96-96-96zm20 32h280c46.536 0 84 37.464 84 84v280c0 46.536-37.464 84-84 84H116c-46.536 0-84-37.464-84-84V116c0-46.536 37.464-84 84-84z" opacity=".42" fill="url(#A)"/><path d="M307.738 71.952C311.994 28.342 319.36-11.52 319.36-96H192.64c0 84.48 7.364 124.34 11.62 167.955 9.5 1.005 9.5 22.125 4.213 38.906l4.597 38.99c2.787-1.79 5.617-3.492 8.552-4.91 3.456-1.67 7-3.092 10.594-4.28s7.243-2.14 10.905-2.877c4.27-.83 8.59-1.306 12.914-1.43 4.325.125 8.643.602 12.914 1.43 3.662.736 7.308 1.7 10.903 2.877s7.138 2.608 10.594 4.28c2.913 1.41 5.722 3.1 8.5 4.875l4.592-38.955c-5.285-16.778-5.285-37.898 4.213-38.906z" fill="#006efe"/><g fill="#fff"><path d="M256 51.84a79.99 79.99 0 0 0-12.914 1.43 95.65 95.65 0 0 0-10.903 2.877 85.25 85.25 0 0 0-10.594 4.28c-3.456 1.672-6.825 3.594-10.07 5.783-2.525 1.703-4.9 3.7-7.26 5.744l4.213 38.906c1.032-.772 1.988-1.696 3.047-2.4a81.58 81.58 0 0 1 10.07-5.783c3.456-1.673 7-3.092 10.594-4.28s7.24-2.14 10.903-2.877A79.65 79.65 0 0 1 256 94.08a79.99 79.99 0 0 1 12.914 1.43 95.65 95.65 0 0 1 10.903 2.877 85.25 85.25 0 0 1 10.594 4.28c3.456 1.672 6.825 3.594 10.07 5.783 1.06.714 2.013 1.637 3.045 2.408l4.213-38.906c-2.358-2.033-4.733-4.04-7.257-5.74a81.58 81.58 0 0 0-10.07-5.783c-3.456-1.673-7-3.092-10.594-4.28s-7.24-2.14-10.903-2.877a79.85 79.85 0 0 0-12.914-1.431zm0 105.6a79.99 79.99 0 0 0-12.914 1.43c-14.65 2.945-29.045 9.367-40.897 20.32-9.85 8.914-17.428 21.166-22.404 34.684-7.502 20.76-10.187 44.2-6.855 66.536 2.456 16.125 7.665 31.44 14.554 45.548 47.396 42.68 89.636 42.68 137.033 0 6.9-14.107 12.098-29.422 14.554-45.548 3.332-22.346.647-45.775-6.855-66.536-4.976-13.518-12.554-25.77-22.404-34.684-11.852-10.954-26.247-17.376-40.897-20.32A79.85 79.85 0 0 0 256 157.44z"/></g><path d="M324.516 325.96l.56-4.947c.127-2.422.078-4.752-.227-6.858s-.864-3.99-1.753-5.512c-.445-.762-.974-1.435-1.593-2a7.28 7.28 0 0 0-2.142-1.361 10.31 10.31 0 0 0-3.506-.781 11.97 11.97 0 0 0-3.591.407c-1.206.317-2.42.806-3.633 1.44s-2.424 1.417-3.63 2.318c-2.41 1.8-4.794 4.082-7.1 6.63s-4.504 5.37-6.57 8.247-3.985 5.816-5.705 8.603-3.24 5.423-4.5 7.7l-4.014 7.672s-.335-2.64-1.085-6.6-1.915-9.24-3.57-14.52c-.828-2.64-1.78-5.28-2.864-7.755s-2.3-4.785-3.658-6.765-2.86-3.63-4.514-4.785c-.827-.578-1.692-1.03-2.596-1.34s-1.847-.474-2.83-.474-1.927.165-2.83.474-1.77.763-2.596 1.34c-1.654 1.155-3.155 2.805-4.514 4.785s-2.575 4.3-3.658 6.765-2.036 5.115-2.864 7.755c-1.656 5.28-2.82 10.56-3.57 14.52s-1.085 6.6-1.085 6.6-1.49-3.117-4.014-7.672c-1.26-2.278-2.78-4.913-4.5-7.7s-3.64-5.725-5.705-8.603-4.274-5.698-6.57-8.247-4.68-4.83-7.1-6.63c-1.206-.9-2.417-1.683-3.63-2.318s-2.426-1.124-3.633-1.44-2.406-.46-3.59-.407-2.356.305-3.506.78a7.28 7.28 0 0 0-2.142 1.361c-.62.566-1.15 1.24-1.593 2-.89 1.523-1.448 3.406-1.753 5.512s-.354 4.435-.227 6.858c.085 1.617.34 3.288.56 4.947 2.24 4.584 4.646 9.047 7.206 13.36 12.5 21.23 29.517 37.77 42.78 58.24 7.466 10.427 11.987 23.25 18.532 34.44 6.545-11.192 11.066-24.014 18.532-34.44 13.262-20.47 30.278-37.01 42.78-58.24 2.56-4.313 4.967-8.776 7.206-13.36z" fill="#0a84ff"/></g></svg>