<?xml version="1.0" encoding="UTF-8" standalone="no"?>
<svg
   xmlns:dc="http://purl.org/dc/elements/1.1/"
   xmlns:cc="http://creativecommons.org/ns#"
   xmlns:rdf="http://www.w3.org/1999/02/22-rdf-syntax-ns#"
   xmlns:svg="http://www.w3.org/2000/svg"
   xmlns="http://www.w3.org/2000/svg"
   xmlns:sodipodi="http://sodipodi.sourceforge.net/DTD/sodipodi-0.dtd"
   xmlns:inkscape="http://www.inkscape.org/namespaces/inkscape"
   inkscape:version="1.0beta1 (fe3e306, 2019-09-17)"
   sodipodi:docname="icon.svg"
   id="svg44"
   version="1.1"
   width="512"
   height="512">
  <metadata
     id="metadata48">
    <rdf:RDF>
      <cc:Work
         rdf:about="">
        <dc:format>image/svg+xml</dc:format>
        <dc:type
           rdf:resource="http://purl.org/dc/dcmitype/StillImage" />
      </cc:Work>
    </rdf:RDF>
  </metadata>
  <sodipodi:namedview
     inkscape:current-layer="svg44"
     inkscape:window-maximized="1"
     inkscape:window-y="-8"
     inkscape:window-x="-8"
     inkscape:cy="260.79065"
     inkscape:cx="284.66441"
     inkscape:zoom="1.3037281"
     showgrid="false"
     id="namedview46"
     inkscape:window-height="1017"
     inkscape:window-width="1920"
     inkscape:pageshadow="2"
     inkscape:pageopacity="0"
     guidetolerance="10"
     gridtolerance="10"
     objecttolerance="10"
     borderopacity="1"
     inkscape:document-rotation="0"
     bordercolor="#666666"
     pagecolor="#ffffff" />
  <defs
     id="defs10">
    <linearGradient
       gradientUnits="userSpaceOnUse"
       id="A"
       x1="256"
       y1="480"
       x2="256"
       y2="32">
      <stop
         id="stop2"
         stop-color="#2d71e2"
         offset="0" />
      <stop
         id="stop4"
         stop-opacity=".005"
         stop-color="#fff"
         offset="1" />
    </linearGradient>
    <clipPath
       id="B">
      <rect
         id="rect7"
         stroke="none"
         fill-opacity="1"
         fill="#006efe"
         opacity=".994"
         ry="96"
         height="512"
         width="512" />
    </clipPath>
  </defs>
  <g
     id="g16"
     stroke-width=".638"
     stroke="#000"
     fill="none">
    <path
       id="path12"
       d="M7773.28 1790.41a793.92 793.92 0 0 0-128.404 14.227c-145.662 29.278-288.8 93.138-406.644 202.053-97.94 88.637-173.3 210.455-222.766 344.865-74.592 206.433-101.296 439.394-68.163 661.582 24.417 160.338 76.2 312.622 144.708 452.89-2.195-16.498-4.72-33.11-5.563-49.193-1.263-24.086-.776-47.245 2.256-68.19s8.6-39.66 17.432-54.807c4.42-7.573 9.685-14.266 15.842-19.893s13.22-10.187 21.302-13.535c11.432-4.735 23.08-7.237 34.863-7.767s23.715.898 35.71 4.05 24.057 8.015 36.12 14.33 24.106 14.1 36.094 23.046c23.975 17.912 47.672 40.583 70.496 65.933s44.784 53.388 65.317 82.006 39.623 57.826 56.73 85.543 32.216 53.924 44.758 76.57c25.085 45.294 39.913 76.29 39.913 76.29s3.333-26.25 10.792-65.625 19.037-91.875 35.504-144.375c8.234-26.25 17.704-52.5 28.48-77.1s22.863-47.578 36.376-67.265 28.444-36.094 44.886-47.578c8.22-5.742 16.824-10.254 25.814-13.33s18.364-4.717 28.147-4.717 19.157 1.64 28.147 4.717 17.593 7.588 25.814 13.33c16.442 11.484 31.374 27.89 44.887 47.578s25.6 42.656 36.376 67.265 20.247 50.86 28.48 77.1c16.467 52.5 28.045 105 35.504 144.375s10.792 65.625 10.792 65.625 14.83-30.995 39.913-76.29c12.542-22.647 27.65-48.854 44.758-76.57s36.196-56.925 56.73-85.543S8167.177 3385.35 8190 3360s46.52-48.02 70.496-65.933c11.987-8.956 24.032-16.73 36.094-23.046s24.125-11.177 36.12-14.33 23.925-4.58 35.71-4.05 23.43 3.032 34.863 7.767c8.084 3.348 15.145 7.908 21.302 13.535s11.422 12.32 15.842 19.893c8.842 15.147 14.4 33.864 17.43 54.807s3.52 44.102 2.256 68.19c-.844 16.082-3.368 32.695-5.563 49.193 68.498-140.267 120.29-292.55 144.708-452.89 33.133-222.188 6.43-455.15-68.163-661.582-49.476-134.4-124.825-256.228-222.766-344.865-117.843-108.916-260.982-172.775-406.644-202.053a793.95 793.95 0 0 0-128.404-14.227z" />
    <path
       id="path14"
       d="M7594.863 847.767a793.92 793.92 0 0 0-128.404 14.227c-145.662 29.278-288.8 93.138-406.644 202.053-97.94 88.637-173.3 210.455-222.766 344.865-74.592 206.433-101.296 439.394-68.163 661.582 24.417 160.338 76.2 312.622 144.708 452.89-2.195-16.498-4.72-33.11-5.563-49.193-1.263-24.086-.776-47.245 2.256-68.19s8.6-39.66 17.432-54.807c4.42-7.573 9.685-14.266 15.842-19.892s13.22-10.187 21.302-13.535c11.432-4.735 23.08-7.237 34.863-7.767s23.715.898 35.71 4.05 24.057 8.015 36.12 14.33 24.106 14.1 36.094 23.046c23.975 17.912 47.672 40.583 70.496 65.933s44.783 53.388 65.317 82.005 39.623 57.826 56.73 85.543 32.216 53.924 44.758 76.57c25.084 45.294 39.913 76.29 39.913 76.29s3.333-26.25 10.792-65.625 19.037-91.875 35.504-144.375c8.234-26.25 17.704-52.5 28.48-77.1s22.863-47.578 36.376-67.265 28.444-36.094 44.886-47.578c8.22-5.742 16.824-10.254 25.814-13.33s18.364-4.717 28.147-4.717 19.157 1.64 28.147 4.717 17.593 7.588 25.814 13.33c16.442 11.484 31.374 27.9 44.886 47.578s25.6 42.656 36.376 67.265 20.247 50.86 28.48 77.1c16.467 52.5 28.045 105 35.504 144.375s10.792 65.625 10.792 65.625 14.83-30.995 39.914-76.29c12.542-22.647 27.65-48.854 44.758-76.57s36.196-56.925 56.73-85.543 42.495-56.656 65.318-82.005 46.52-48.02 70.495-65.933c11.987-8.956 24.032-16.73 36.094-23.046s24.125-11.177 36.12-14.33 23.925-4.58 35.71-4.05 23.43 3.032 34.863 7.767c8.084 3.348 15.145 7.908 21.302 13.535s11.42 12.32 15.842 19.892c8.842 15.147 14.4 33.864 17.43 54.807s3.52 44.102 2.256 68.19c-.844 16.082-3.368 32.695-5.563 49.193 68.498-140.267 120.29-292.55 144.708-452.89 33.133-222.188 6.43-455.15-68.163-661.582-49.476-134.4-124.825-256.228-222.766-344.865-117.843-108.916-260.982-172.775-406.644-202.053a793.95 793.95 0 0 0-128.405-14.227z" />
  </g>
  <g
     id="g42"
     clip-path="url(#B)">
    <path
       sodipodi:nodetypes="ccccc"
       inkscape:connector-curvature="0"
       id="path18"
       fill="#258efb"
       d="m 0,416 h 512 v 96 H 0 Z" />
    <path
       sodipodi:nodetypes="cccccc"
       inkscape:connector-curvature="0"
       id="path20"
       fill="#44c9c3"
       d="m 0,320 v 96 l 256,32 256,-32 v -96 z" />
    <path
       sodipodi:nodetypes="cccccc"
       inkscape:connector-curvature="0"
       id="path22"
       fill="#67fb4f"
       d="M 0,192.5 V 320 L 256,448 512,320 V 192 Z" />
    <path
       id="path24"
       fill="#fbe94f"
       d="M0 192.5L256 448l256-256V0H0z" />
    <path
       id="path26"
       fill="#fda81f"
       d="M0 0l256 448L512 0z" />
    <path
       id="path28"
       fill="#fc5858"
       d="M256 448L384 0H128z" />
    <path
       id="path30"
       fill="#006efe"
       d="M295.195 127.236C298.42 94.198 304 64 304 0h-96c0 64 5.578 94.196 8.803 127.238C224 128 224 144 219.994 156.713l3.482 29.537c2.11-1.356 4.255-2.645 6.48-3.72a65.87 65.87 0 0 1 8.025-3.242 70.9 70.9 0 0 1 8.262-2.18 60.49 60.49 0 0 1 9.783-1.084 60.49 60.49 0 0 1 9.783 1.084c2.775.558 5.536 1.28 8.26 2.18a65.87 65.87 0 0 1 8.025 3.242c2.207 1.068 4.335 2.35 6.432 3.693l3.48-29.512C288 144 288 128 295.195 127.236z" />
    <g
       id="g34"
       fill="#fff">
      <path
         id="path32"
         d="M256 112a60.49 60.49 0 0 0-9.783 1.084 70.87 70.87 0 0 0-8.26 2.18 66.01 66.01 0 0 0-8.025 3.242c-2.618 1.266-5.17 2.723-7.63 4.38-1.913 1.3-3.713 2.8-5.5 4.352l3.2 29.475 2.3-1.826a61.29 61.29 0 0 1 7.63-4.38 66.14 66.14 0 0 1 8.025-3.242 70.87 70.87 0 0 1 8.26-2.18A60.49 60.49 0 0 1 256 144a60.49 60.49 0 0 1 9.783 1.084 70.87 70.87 0 0 1 8.26 2.18 66.01 66.01 0 0 1 8.025 3.242c2.618 1.266 5.17 2.723 7.63 4.38.802.54 1.525 1.24 2.307 1.824l3.2-29.475-5.498-4.35a61.29 61.29 0 0 0-7.63-4.38 66.14 66.14 0 0 0-8.025-3.242 70.87 70.87 0 0 0-8.26-2.18A60.49 60.49 0 0 0 256 112zm0 80a60.49 60.49 0 0 0-9.783 1.084c-11.098 2.23-22.004 7.096-30.982 15.395-7.462 6.753-13.203 16.035-16.973 26.275-5.683 15.728-7.718 33.478-5.193 50.406 1.86 12.216 5.806 23.82 11.025 34.506C240 352 272 352 307.906 319.666c5.22-10.687 9.165-22.3 11.025-34.506 2.524-16.93.5-34.678-5.193-50.406-3.77-10.24-9.5-19.522-16.973-26.275-8.98-8.298-19.884-13.164-30.982-15.395A60.49 60.49 0 0 0 256 192z" />
    </g>
    <path
       id="path36"
       fill="#0a84ff"
       d="M307.906 319.666l.424-3.748c.096-1.835.06-3.6-.172-5.195s-.654-3.022-1.328-4.176c-.337-.577-.738-1.087-1.207-1.516s-1.007-.776-1.623-1.03a7.81 7.81 0 0 0-2.656-.592c-.898-.04-1.807.068-2.72.31s-1.833.61-2.752 1.092-1.837 1.074-2.75 1.756c-1.827 1.365-3.632 3.092-5.37 5.023s-3.412 4.068-4.977 6.248l-4.322 6.518-3.4 5.834L272 336l-.822-5c-.568-3-1.45-7-2.705-11-.627-2-1.35-4-2.17-5.875s-1.742-3.625-2.77-5.125-2.167-2.75-3.42-3.625c-.626-.437-1.282-.78-1.967-1.016a6.58 6.58 0 0 0-4.289 0c-.685.234-1.34.578-1.967 1.016-1.253.875-2.4 2.125-3.42 3.625s-1.95 3.25-2.77 5.125-1.543 3.875-2.17 5.875c-1.255 4-2.137 8-2.705 11s-.822 5-.822 5-1.13-2.36-3.04-5.812c-.956-1.726-2.107-3.722-3.4-5.834s-2.758-4.337-4.322-6.518-3.238-4.317-4.977-6.248-3.544-3.66-5.37-5.023c-.913-.682-1.83-1.275-2.75-1.756s-1.838-.852-2.752-1.092-1.823-.35-2.72-.31A7.81 7.81 0 0 0 208 304c-.616.255-1.154.603-1.623 1.03s-.87.94-1.207 1.516c-.674 1.154-1.097 2.58-1.328 4.176s-.268 3.36-.172 5.195c.064 1.225.257 2.49.424 3.748 1.696 3.473 3.52 6.854 5.46 10.12 9.47 16.084 22.362 28.615 32.408 44.12 5.656 7.9 9.08 17.613 14.04 26.092 4.958-8.48 8.383-18.193 14.04-26.092 10.047-15.507 22.938-28.037 32.408-44.12 1.94-3.267 3.763-6.648 5.46-10.12z" />
    <rect
       id="rect38"
       fill="#fff"
       ry="24"
       y="416"
       x="112"
       height="48"
       width="288" />
    <path
       id="path40"
       fill="url(#A)"
       opacity=".42"
       d="M96 0C42.816 0 0 42.816 0 96v320c0 53.184 42.816 96 96 96h320c53.184 0 96-42.816 96-96V96c0-53.184-42.816-96-96-96zm20 32h280c46.536 0 84 37.464 84 84v280c0 46.536-37.464 84-84 84H116c-46.536 0-84-37.464-84-84V116c0-46.536 37.464-84 84-84z" />
  </g>
</svg>
