<?xml version="1.0" encoding="UTF-8"?>
<svg version="1.1" viewBox="0 0 16 16" xmlns="http://www.w3.org/2000/svg">
 <defs>
  <linearGradient id="A" x1="256" x2="256" y1="480" y2="32" gradientUnits="userSpaceOnUse">
   <stop stop-color="#2d71e2" offset="0"/>
   <stop stop-color="#fff" stop-opacity=".005" offset="1"/>
  </linearGradient>
  <clipPath id="B">
   <rect width="512" height="512" ry="96" fill="#006efe" opacity=".994"/>
  </clipPath>
 </defs>
 <g transform="scale(.03125)" clip-path="url(#B)" stroke-width="32">
  <path d="m0 432h512v80h-512z" fill="#258efb"/>
  <path d="m0 336v96l256 32 256-32v-96z" fill="#44c9c3"/>
  <path d="m0 208v128l256 128 256-128v-128z" fill="#67fb4f"/>
  <path d="M 0,208.5 256,464 512,208 V 16 H 0 Z" fill="#fbe94f"/>
  <path d="m0 16 256 448 256-448v-16h-512z" fill="#fda81f"/>
  <path d="m256 464 144-464h-288z" fill="#fc5858"/>
  <rect x="96" y="448" width="320" height="32" ry="16" fill="#fff"/>
  <path d="m96 0c-53.184 0-96 42.816-96 96v320c0 53.184 42.816 96 96 96h320c53.184 0 96-42.816 96-96v-320c0-53.184-42.816-96-96-96zm20 32h280c46.536 0 84 37.464 84 84v280c0 46.536-37.464 84-84 84h-280c-46.536 0-84-37.464-84-84v-280c0-46.536 37.464-84 84-84z" fill="url(#A)" opacity=".42"/>
  <path d="m307.74 71.952c4.256-43.61 11.622-83.472 11.622-167.95h-126.72c0 84.48 7.364 124.34 11.62 167.96 9.5 1.005 9.5 22.125 4.213 38.906l4.597 38.99c2.787-1.79 5.617-3.492 8.552-4.91 3.456-1.67 7-3.092 10.594-4.28s7.243-2.14 10.905-2.877c4.27-0.83 8.59-1.306 12.914-1.43 4.325 0.125 8.643 0.602 12.914 1.43 3.662 0.736 7.308 1.7 10.903 2.877s7.138 2.608 10.594 4.28c2.913 1.41 5.722 3.1 8.5 4.875l4.592-38.955c-5.285-16.778-5.285-37.898 4.213-38.906z" fill="#006efe"/>
  <g fill="#fff">
   <path d="m256 51.84a79.99 79.99 0 0 0-12.914 1.43 95.65 95.65 0 0 0-10.903 2.877 85.25 85.25 0 0 0-10.594 4.28c-3.456 1.672-6.825 3.594-10.07 5.783-2.525 1.703-4.9 3.7-7.26 5.744l4.213 38.906c1.032-0.772 1.988-1.696 3.047-2.4a81.58 81.58 0 0 1 10.07-5.783c3.456-1.673 7-3.092 10.594-4.28s7.24-2.14 10.903-2.877a79.65 79.65 0 0 1 12.914-1.44 79.99 79.99 0 0 1 12.914 1.43 95.65 95.65 0 0 1 10.903 2.877 85.25 85.25 0 0 1 10.594 4.28c3.456 1.672 6.825 3.594 10.07 5.783 1.06 0.714 2.013 1.637 3.045 2.408l4.213-38.906c-2.358-2.033-4.733-4.04-7.257-5.74a81.58 81.58 0 0 0-10.07-5.783c-3.456-1.673-7-3.092-10.594-4.28s-7.24-2.14-10.903-2.877a79.85 79.85 0 0 0-12.914-1.431zm0 105.6a79.99 79.99 0 0 0-12.914 1.43c-14.65 2.945-29.045 9.367-40.897 20.32-9.85 8.914-17.428 21.166-22.404 34.684-7.502 20.76-10.187 44.2-6.855 66.536 2.456 16.125 7.665 31.44 14.554 45.548 47.396 42.68 89.636 42.68 137.03 0 6.9-14.107 12.098-29.422 14.554-45.548 3.332-22.346 0.647-45.775-6.855-66.536-4.976-13.518-12.554-25.77-22.404-34.684-11.852-10.954-26.247-17.376-40.897-20.32a79.85 79.85 0 0 0-12.915-1.43z" stroke-width="32"/>
  </g>
  <path d="m324.52 325.96 0.56-4.947c0.127-2.422 0.078-4.752-0.227-6.858s-0.864-3.99-1.753-5.512c-0.445-0.762-0.974-1.435-1.593-2a7.28 7.28 0 0 0-2.142-1.361 10.31 10.31 0 0 0-3.506-0.781 11.97 11.97 0 0 0-3.591 0.407c-1.206 0.317-2.42 0.806-3.633 1.44s-2.424 1.417-3.63 2.318c-2.41 1.8-4.794 4.082-7.1 6.63s-4.504 5.37-6.57 8.247-3.985 5.816-5.705 8.603-3.24 5.423-4.5 7.7l-4.014 7.672s-0.335-2.64-1.085-6.6-1.915-9.24-3.57-14.52c-0.828-2.64-1.78-5.28-2.864-7.755s-2.3-4.785-3.658-6.765-2.86-3.63-4.514-4.785c-0.827-0.578-1.692-1.03-2.596-1.34s-1.847-0.474-2.83-0.474-1.927 0.165-2.83 0.474-1.77 0.763-2.596 1.34c-1.654 1.155-3.155 2.805-4.514 4.785s-2.575 4.3-3.658 6.765-2.036 5.115-2.864 7.755c-1.656 5.28-2.82 10.56-3.57 14.52s-1.085 6.6-1.085 6.6-1.49-3.117-4.014-7.672c-1.26-2.278-2.78-4.913-4.5-7.7s-3.64-5.725-5.705-8.603-4.274-5.698-6.57-8.247-4.68-4.83-7.1-6.63c-1.206-0.9-2.417-1.683-3.63-2.318s-2.426-1.124-3.633-1.44-2.406-0.46-3.59-0.407-2.356 0.305-3.506 0.78a7.28 7.28 0 0 0-2.142 1.361c-0.62 0.566-1.15 1.24-1.593 2-0.89 1.523-1.448 3.406-1.753 5.512s-0.354 4.435-0.227 6.858c0.085 1.617 0.34 3.288 0.56 4.947 2.24 4.584 4.646 9.047 7.206 13.36 12.5 21.23 29.517 37.77 42.78 58.24 7.466 10.427 11.987 23.25 18.532 34.44 6.545-11.192 11.066-24.014 18.532-34.44 13.262-20.47 30.278-37.01 42.78-58.24 2.56-4.313 4.967-8.776 7.206-13.36z" fill="#0a84ff"/>
 </g>
</svg>
