<svg xmlns="http://www.w3.org/2000/svg" width="16" height="16"><circle cx="8" cy="8" fill="#b3b3b3" r="8"/><g transform="matrix(-1 0 0 1 0 -118.03)" fill="#fff"><rect ry="1" height="4" width="2" y="119.03" x="-9"/><rect opacity=".4" ry="1" height="4" width="2" y="129.03" x="-9"/></g><g transform="matrix(-.866033 .499986 .50001 .86602 0 -118.03)"><rect opacity=".9" ry="1" height="4" width="2" y="106.146" x="55.088" fill="#fff"/><rect opacity=".3" ry="1" height="4" width="2" y="116.146" x="55.088" fill="#fff"/></g><g transform="matrix(-.50001 .86602 .866033 .499986 0 -118.03)"><rect opacity=".8" ry="1" height="4" width="2" y="62.944" x="104.147" fill="#fff"/><rect opacity=".2" ry="1" height="4" width="2" y="72.944" x="104.147" fill="#fff"/></g><g transform="matrix(0 1 1 0 0 -118.03)"><rect opacity=".7" ry="1" height="4" width="2" y="1" x="125.03" fill="#fff"/><rect opacity=".1" ry="1" height="4" width="2" y="11" x="125.03" fill="#fff"/></g><rect opacity=".6" ry="1" height="4" width="2" y="-63.088" x="112.146" transform="matrix(.50001 .86602 .866033 -.499986 0 -118.03)" fill="#fff"/><rect opacity=".5" ry="1" height="4" width="2" y="-112.146" x="68.945" transform="matrix(.866033 .499986 .50001 -.86602 0 -118.03)" fill="#fff"/></svg>