<?xml version="1.0" encoding="UTF-8"?>
<svg version="1.1" viewBox="0 0 16 16" xmlns="http://www.w3.org/2000/svg">
 <circle cx="8" cy="8" r="8" fill="#9b9b9e"/>
 <circle cx="8" cy="8" r="6" fill="#b1b1b3"/>
 <path d="M4.853 4.147l-.707.707a.5.5 90 0 0 0 .707L6.586 8l-2.44 2.44a.5.5 90 0 0 0 .707l.707.707a.5.5 180 0 0 .707 0L8 9.414l2.44 2.44a.5.5 180 0 0 .707 0l.707-.707a.5.5 90 0 0 0-.707L9.414 8l2.44-2.44a.5.5 90 0 0 0-.707l-.707-.707a.5.5 0 0 0-.707 0L8 6.586l-2.44-2.44a.5.5 180 0 0-.707 0z" dominant-baseline="auto" fill="#fff"/>
</svg>
