<?xml version="1.0" encoding="UTF-8" standalone="no"?>
<svg
   xmlns:dc="http://purl.org/dc/elements/1.1/"
   xmlns:cc="http://creativecommons.org/ns#"
   xmlns:rdf="http://www.w3.org/1999/02/22-rdf-syntax-ns#"
   xmlns:svg="http://www.w3.org/2000/svg"
   xmlns="http://www.w3.org/2000/svg"
   xmlns:sodipodi="http://sodipodi.sourceforge.net/DTD/sodipodi-0.dtd"
   xmlns:inkscape="http://www.inkscape.org/namespaces/inkscape"
   inkscape:version="1.0beta1 (fe3e306, 2019-09-17)"
   sodipodi:docname="collapse.svg"
   id="svg6"
   viewBox="0 0 16 16"
   version="1.1"
   height="16"
   width="16">
  <sodipodi:namedview
     inkscape:snap-center="false"
     inkscape:snap-object-midpoints="true"
     inkscape:snap-midpoints="true"
     inkscape:snap-smooth-nodes="true"
     inkscape:snap-intersection-paths="true"
     inkscape:object-paths="true"
     inkscape:bbox-paths="true"
     inkscape:snap-bbox-edge-midpoints="true"
     inkscape:snap-bbox-midpoints="true"
     inkscape:bbox-nodes="true"
     inkscape:snap-bbox="true"
     inkscape:current-layer="svg6"
     inkscape:window-maximized="1"
     inkscape:window-y="-8"
     inkscape:window-x="-8"
     inkscape:cy="8.7528638"
     inkscape:cx="6.8224121"
     inkscape:zoom="45.254834"
     showgrid="true"
     id="namedview8"
     inkscape:window-height="1017"
     inkscape:window-width="1920"
     inkscape:pageshadow="2"
     inkscape:pageopacity="0"
     guidetolerance="10"
     gridtolerance="10"
     objecttolerance="10"
     borderopacity="1"
     bordercolor="#666666"
     pagecolor="#ffffff"
     inkscape:document-rotation="0">
    <inkscape:grid
       empspacing="32"
       id="grid4539"
       type="xygrid" />
  </sodipodi:namedview>
  <defs
     id="defs10" />
  <metadata
     id="metadata2">
    <rdf:RDF>
      <cc:Work
         rdf:about="">
        <dc:format>image/svg+xml</dc:format>
        <dc:type
           rdf:resource="http://purl.org/dc/dcmitype/StillImage" />
        <dc:title></dc:title>
      </cc:Work>
    </rdf:RDF>
  </metadata>
  <path
     inkscape:connector-curvature="0"
     d="M 2,3 A 1,1 0 0 0 1,4 1,1 0 0 0 1.5527344,4.8925781 v 0.00195 l 6,2.9999998 A 1,1 0 0 0 8,8 1,1 0 0 0 8.4472656,7.894531 1,1 0 0 0 8.4589844,7.888672 L 14.447266,4.8945312 A 1,1 0 0 0 15,4 1,1 0 0 0 14,3 a 1,1 0 0 0 -0.447266,0.1054688 1,1 0 0 0 -0.01172,0.00586 L 8,5.8828125 2.4472656,3.1054688 A 1,1 0 0 0 2,3 Z"
     style="fill:#000000;stroke-width:3;stroke-linecap:round;stroke-linejoin:bevel;stroke-miterlimit:4;stroke-dasharray:none"
     id="path893" />
  <path
     inkscape:connector-curvature="0"
     id="path893-8"
     style="fill:#000000;stroke-width:3;stroke-linecap:round;stroke-linejoin:bevel;stroke-miterlimit:4;stroke-dasharray:none"
     d="M 2,8.0000003 A 1,1 0 0 0 1,9 1,1 0 0 0 1.5527344,9.8925783 v 0.002 l 6,2.9999997 A 1,1 0 0 0 8,13 a 1,1 0 0 0 0.4472656,-0.105469 1,1 0 0 0 0.011719,-0.0059 L 14.447267,9.8945313 A 1,1 0 0 0 15.000001,9 a 1,1 0 0 0 -1,-0.9999997 1,1 0 0 0 -0.447266,0.1054688 1,1 0 0 0 -0.01172,0.00586 L 8,10.882813 2.4472656,8.1054691 A 1,1 0 0 0 2,8.0000003 Z" />
</svg>
