<svg version="1.1" viewBox="0 0 168 12" xml:space="preserve" xmlns="http://www.w3.org/2000/svg">
  <view id="icon1" viewBox="0 0 12 12"/>
  <view id="icon2" viewBox="12 0 12 12"/>
  <view id="icon3" viewBox="24 0 12 12"/>
  <view id="icon4" viewBox="36 0 12 12"/>
  <view id="icon5" viewBox="48 0 12 12"/>
  <view id="icon6" viewBox="60 0 12 12"/>
  <view id="icon7" viewBox="72 0 12 12"/>
  <view id="icon8" viewBox="84 0 12 12"/>
  <view id="icon9" viewBox="96 0 12 12"/>
  <view id="icon10" viewBox="108 0 12 12"/>
  <view id="icon11" viewBox="120 0 12 12"/>
  <view id="icon12" viewBox="132 0 12 12"/>
  <view id="icon13" viewBox="144 0 12 12"/>
  <view id="icon14" viewBox="156 0 12 12"/>
  <path d="m65 2.5002v-1c0-0.27614-0.22386-0.5-0.5-0.5h-2c-0.82843 0-1.5 0.67157-1.5 1.5v7c0 0.82843 0.67157 1.5 1.5 1.5h7c0.82843 0 1.5-0.67157 1.5-1.5v-2c0-0.27614-0.22386-0.5-0.5-0.5h-1c-0.27614 0-0.5 0.22386-0.5 0.5v1.5h-6v-6h1.5c0.27614 0 0.5-0.22386 0.5-0.5zm-0.5 5 6-6"/>
  <path d="m66 0.5002v1a0.5 0.5 0 0 0 0.5 0.5h2.086l-4.44 4.44a0.5 0.5 0 0 0 0 0.707l0.707 0.707a0.5 0.5 0 0 0 0.707 0l4.44-4.44v2.086a0.5 0.5 0 0 0 0.5 0.5h1a0.5 0.5 0 0 0 0.5-0.5v-4.5a1 1 0 0 0-1-1h-4.5a0.5 0.5 0 0 0-0.5 0.5z"/>
  <path d="m72.236 7.6374c0.71635 2.5109 3.0299 4.3628 5.7637 4.3628 1.5391 0 3.5-1.5 4-2.5566v1.0566c0 0.27614 0.22386 0.5 0.5 0.5h1c0.27614 0 0.5-0.22386 0.5-0.5v-3.5c0-0.55228-0.44772-1-1-1h-3.5c-0.27614 0-0.5 0.22386-0.5 0.5v1c0 0.27614 0.22386 0.5 0.5 0.5h1.127c-0.62695 1-1.6113 2-2.627 2-1.7425 0-3.202-1.1007-3.7531-2.6459-0.0687-0.19261-0.27405-0.3541-0.47862-0.3541h-1.0228c-0.36102 0-0.60816 0.29018-0.50917 0.63718z"/>
  <path d="m83.764 4.363c-0.71635-2.5109-3.0299-4.3628-5.7637-4.3628-1.5391 0-3.5 1.5-4 2.5566v-1.0566c0-0.27614-0.22386-0.5-0.5-0.5h-1c-0.27614 0-0.5 0.22386-0.5 0.5v3.5c0 0.55228 0.44772 1 1 1h3.5c0.27614 0 0.5-0.22386 0.5-0.5v-1c0-0.27614-0.22386-0.5-0.5-0.5h-1.127c0.62695-1 1.6113-2 2.627-2 1.7425 0 3.202 1.1007 3.7531 2.6459 0.0687 0.19261 0.27405 0.3541 0.47862 0.3541h1.0228c0.36102 0 0.60816-0.29018 0.50917-0.63718z"/>
  <path d="m166.5 7.9996-1-1.0001-3.5 3.5005-3.5-3.5005-1 1.0001 4 4.0006h1z"/>
  <path d="m166.5 4.0002-1 1-3.5-3.5-3.5 3.5-1-1 4-4h1z"/>
  <path d="m138.44 0.54444 1.4722 2.983a0.49318 0.49318 0 0 0 0.37134 0.26979l3.2919 0.47835a0.49318 0.49318 0 0 1 0.27333 0.84122l-2.3821 2.3219a0.49318 0.49318 0 0 0-0.14184 0.43653l0.56233 3.2786a0.49318 0.49318 0 0 1-0.71558 0.5199l-2.9444-1.548a0.49318 0.49318 0 0 0-0.459 0l-2.9444 1.548a0.49318 0.49318 0 0 1-0.71559-0.5199l0.56233-3.2786a0.49318 0.49318 0 0 0-0.14184-0.43653l-2.3821-2.3219a0.49318 0.49318 0 0 1 0.27333-0.84122l3.2919-0.47835a0.49318 0.49318 0 0 0 0.37134-0.26979l1.4722-2.983a0.49318 0.49318 0 0 1 0.88452 0z"/>
  <path d="m37 8.0002c-0.554 0-1 0.446-1 1v2c0 0.554 0.446 1 1 1h10c0.554 0 1-0.446 1-1v-2c0-0.554-0.446-1-1-1h-3v1c0 0.55228-0.44772 1-1 1h-2c-0.55228 0-1-0.44772-1-1v-1zm0.48633 0.75c0.0046-4.13e-5 0.0091-4.13e-5 0.01367 0 0.41421 0 0.75 0.33579 0.75 0.75 0 0.41421-0.33579 0.75-0.75 0.75s-0.75-0.33579-0.75-0.75c-6.8e-5 -0.40893 0.32746-0.74255 0.73633-0.75z"/>
  <path d="m41 8.5v-5.0859l-1.4394 1.4394a0.5 0.5 0 0 1-0.70711 0l-0.70696-0.70696a0.5 0.5 0 0 1 0-0.70711l3.1464-3.1464a1 1 0 0 1 1.4142 0l3.1464 3.1464a0.5 0.5 0 0 1 0 0.70711l-0.70696 0.70696a0.5 0.5 0 0 1-0.70711 0l-1.4394-1.4394v5.0859a0.5 0.5 0 0 1-0.5 0.5h-1a0.5 0.5 0 0 1-0.5-0.5z"/>
  <path d="m90 7.0002c-4 0-5 2.25-5 3v1c0 0.6925 0.446 1 1 1h8c0.554 0 1-0.3075 1-1v-1c0-0.75-1-3-5-3z"/><path d="m90 1.977e-4a3 3 0 0 0-3 3 3 3 0 0 0 3 3 3 3 0 0 0 3-3 3 3 0 0 0-3-3z"/>
  <path d="m28 1.0002v1h-1a1 1 0 0 0-1 1v8a1 1 0 0 0 1 1h6a1 1 0 0 0 1-1v-8a1 1 0 0 0-1-1h-1v-1a1 1 0 0 0-1-1h-2a1 1 0 0 0-1 1zm1 0h2v2h-2zm-2 3h6v1h-6z"/>
  <path d="m49 8.0002c-0.554 0-1 0.446-1 1v2c0 0.554 0.446 1 1 1h10c0.554 0 1-0.446 1-1v-2c0-0.554-0.446-1-1-1h-2.1719l-1.4139 1.4139a2 2 0 0 1-2.8284 0l-1.4139-1.4139zm0.48633 0.75c0.0046-4.15e-5 0.0091-4.15e-5 0.01367 0 0.41421 0 0.75 0.33579 0.75 0.75s-0.33579 0.75-0.75 0.75-0.75-0.33579-0.75-0.75c-6.8e-5 -0.40893 0.32746-0.74255 0.73633-0.75z"/>
  <path d="m53 0.5002v5.0859l-1.4394-1.4394a0.5 0.5 0 0 0-0.70711 0l-0.70696 0.70696a0.5 0.5 0 0 0 0 0.70711l3.1464 3.1464a1 1 0 0 0 1.4142 0l3.1464-3.1464a0.5 0.5 0 0 0 0-0.70711l-0.70696-0.70696a0.5 0.5 0 0 0-0.70711 0l-1.4394 1.4394v-5.0859a0.5 0.5 0 0 0-0.5-0.5h-1a0.5 0.5 0 0 0-0.5 0.5z"/>
  <path d="m2 1.0002v10a1 1 0 0 0 1 1h6a1 1 0 0 0 1-1v-7h-3a1 1 0 0 1-1-1v-3h-3a1 1 0 0 0-1 1zm5-1v3h3v-0.08579a1 1 0 0 0-0.29289-0.7071l-1.9142-1.9142a1 1 0 0 0-0.7071-0.29289z"/>
  <path d="m12 2.0002v7.352l2.307-4.615c0.226-0.452 0.688-0.737 1.193-0.737h6.5v-1a1 1 0 0 0-1-1h-3l-1-1h-4a1 1 0 0 0-1 1zm3.106 3.553-2 4a1 1 0 0 0 0.895 1.447h7a1 1 0 0 0 0.894-0.553l2-4a1 1 0 0 0-0.896-1.447h-6.999a1 1 0 0 0-0.894 0.553z"/>
  <path d="m113.45 0.0041314c-1.358 0.05-2.656 0.55-3.643 1.514-2.254 2.202-2.552 6.005-0.02 8.482 1.672 1.635 4.454 2.275 6.443 1.893 1.578-0.303 1.666-2.195 0.514-3.32-0.387-0.4-0.557-1.172-0.318-1.572 1.021-1.711 3.574 0.261 3.574-2.239 0-0.828-0.3-1.545-1.53-2.748-1.424-1.394-3.273-2.074-5.02-2.01zm-0.95 1.496a1 1 0 1 1 0 2 1 1 0 1 1 0-2zm-2 2a1 1 0 1 1 0 2 1 1 0 1 1 0-2zm0 3a1 1 0 1 1 0 2 1 1 0 1 1 0-2zm2 2a1 1 0 1 1 0 2 1 1 0 1 1 0-2z"/>
  <path d="m101.29 4.2932-3 3a1 1 0 0 0-0.293 0.707v3.5a0.5 0.5 0 0 0 0.5 0.5h2a0.5 0.5 0 0 0 0.5-0.5v-3a0.5 0.5 0 0 1 0.5-0.5h1a0.5 0.5 0 0 1 0.5 0.5v3a0.5 0.5 0 0 0 0.5 0.5h2a0.5 0.5 0 0 0 0.5-0.5v-3.5a1 1 0 0 0-0.293-0.707l-3-3a1 1 0 0 0-1.414 0zm0-4-5 5a1 1 0 0 0 0 1.414 1 1 0 0 0 1.414 0l3.586-3.587a1 1 0 0 1 1.414 0l3.586 3.586a1 1 0 0 0 1.414-1.414l-1.707-1.706v-2.086a0.5 0.5 0 0 0-0.5-0.5h-1a0.5 0.5 0 0 0-0.5 0.5v0.086l-1.293-1.293a1 1 0 0 0-1.414 0z"/>
  <path d="m120 1.0002v10h12v-10zm2.5 1a1.5 1.5 0 0 1 1.5 1.5 1.5 1.5 0 0 1-1.5 1.5 1.5 1.5 0 0 1-1.5-1.5 1.5 1.5 0 0 1 1.5-1.5zm5 3.5 3.5 3.5v1h-10v-1l2.5-2.5 1.5 1.5z"/>
  <path d="m146.18 1.0005c-0.12443 6e-3 -0.24214 0.05824-0.33008 0.14648l-0.70703 0.70703c-0.19521 0.19525-0.19521 0.51178 0 0.70703l3.4394 3.4395-3.4394 3.4395c-0.19521 0.19525-0.19521 0.51178 0 0.70703l0.70703 0.70703c0.19526 0.19521 0.51178 0.19521 0.70704 0l3.4394-3.4395 3.4394 3.4395c0.19525 0.19521 0.51178 0.19521 0.70703 0l0.70703-0.70703c0.19522-0.19525 0.19522-0.51178 0-0.70703l-3.4394-3.4395 3.4394-3.4395c0.19522-0.19525 0.19522-0.51178 0-0.70703l-0.70703-0.70703c-0.19525-0.19521-0.51178-0.19521-0.70703 0l-3.4394 3.4395-3.4394-3.4395c-0.0994-0.09973-0.23629-0.15292-0.37696-0.14648z"/>
</svg>
