<svg version="1.1" viewBox="0 0 176 16" xml:space="preserve" xmlns="http://www.w3.org/2000/svg">
  <view id="icon1" viewBox="0 0 16 16"/>
  <view id="icon2" viewBox="16 0 16 16"/>
  <view id="icon3" viewBox="32 0 16 16"/>
  <view id="icon4" viewBox="48 0 16 16"/>
  <view id="icon5" viewBox="64 0 16 16"/>
  <view id="icon6" viewBox="80 0 16 16"/>
  <view id="icon7" viewBox="96 0 16 16"/>
  <view id="icon8" viewBox="112 0 16 16"/>
  <view id="icon9" viewBox="128 0 16 16"/>
  <view id="icon10" viewBox="144 0 16 16"/>
  <view id="icon11" viewBox="160 0 16 16"/>
  <path d="m72 0a8 8 0 1 0 0 16 8 8 0 1 0 0-16zm0 2a6 6 0 1 1 0 12 6 6 0 1 1 0-12z"/>
  <path d="m75.44 5.146-4.44 4.44-1.94-1.94a0.5 0.5 0 0 0-0.707 0l-0.707 0.707a0.5 0.5 0 0 0 0 0.707l2.646 2.646a1 1 0 0 0 1.414 0l5.146-5.146a0.5 0.5 0 0 0 0-0.707l-0.707-0.707a0.5 0.5 0 0 0-0.707 0z"/>
  <path d="m104 7-1.75-1e-7 -0.25-1h-3l-0.25 1-1.75 1e-7 2.5-7h2zm-2.5-2.5-1-3-1 3z"/>
  <path d="m103 16h-5v-1.5l3-4h-3v-1.5h5v1.5l-3 4h3z"/>
  <path d="m107.5 0.033203a0.5 0.5 0 0 0-0.5 0.5v13.158l-2.0703-3.4492a0.5 0.5 0 0 0-0.6875-0.17188 0.5 0.5 0 0 0-0.17188 0.6875l3 5a0.50005 0.50005 0 0 0 0.85938 0l3-5a0.5 0.5 0 0 0-0.17188-0.6875 0.5 0.5 0 0 0-0.6875 0.17188l-2.0703 3.4492v-13.158a0.5 0.5 0 0 0-0.5-0.5z"/>
  <path d="m56-5e-8a1.1094 0.5 0 0 0-1.1094 0.5v1.291a1 1 0 0 1-0.61719 0.92383l-0.78906 0.32812a1 1 0 0 1-1.0898-0.2168l-0.91406-0.91406a0.5 1.1094 45 0 0-1.1367 0.43164 0.5 1.1094 45 0 0-0.43164 1.1367l0.91406 0.91406a1 1 0 0 1 0.2168 1.0898l-0.32812 0.78906a1 1 0 0 1-0.92383 0.61719h-1.291a0.5 1.1094 0 0 0-0.5 1.1094 0.5 1.1094 0 0 0 0.5 1.1094h1.291a1 1 0 0 1 0.92383 0.61719l0.32812 0.78906a1 1 0 0 1-0.2168 1.0898l-0.91406 0.91406a1.1094 0.5 45 0 0 0.43164 1.1367 1.1094 0.5 45 0 0 1.1367 0.43164l0.91406-0.91406a1 1 0 0 1 1.0898-0.2168l0.78906 0.32812a1 1 0 0 1 0.61719 0.92383v1.291a1.1094 0.5 0 0 0 1.1094 0.5 1.1094 0.5 0 0 0 1.1094-0.5v-1.291a1 1 0 0 1 0.61719-0.92383l0.78906-0.32812a1 1 0 0 1 1.0898 0.2168l0.91406 0.91406a0.5 1.1094 45 0 0 1.1367-0.43164 0.5 1.1094 45 0 0 0.43164-1.1367l-0.91406-0.91406a1 1 0 0 1-0.2168-1.0898l0.32812-0.78906a1 1 0 0 1 0.92383-0.61719h1.291a0.5 1.1094 0 0 0 0.5-1.1094 0.5 1.1094 0 0 0-0.5-1.1094h-1.291a1 1 0 0 1-0.92383-0.61719l-0.32812-0.78906a1 1 0 0 1 0.2168-1.0898l0.91406-0.91406a1.1094 0.5 45 0 0-0.43164-1.1367 1.1094 0.5 45 0 0-1.1367-0.43164l-0.91406 0.91406a1 1 0 0 1-1.0898 0.2168l-0.78906-0.32812a1 1 0 0 1-0.61719-0.92383v-1.291a1.1094 0.5 0 0 0-1.1094-0.5zm0 5a3 3 0 0 1 3 3 3 3 0 0 1-3 3 3 3 0 0 1-3-3 3 3 0 0 1 3-3z"/>
  <path d="m131.5 3-3.5 11h2l0.73438-2.5h3.5312l0.73438 2.5h2l-3.5-11h-2zm1 2.5 1.3242 4.5h-2.6484l1.3242-4.5z"/>
  <path d="m140.52 6.8066c-1.1682 0.0061798-2.2812 0.49024-2.5156 1.1934v1.5c0.5-1 3.5-2 4-0.5v1c-1 0-4.5-0.5-4.5 2 0 2 3 3 4.5 1v1h1.5v-5c-0.26562-1.5937-1.6604-2.2004-2.9844-2.1934zm1.4844 4.1934v0.5c-0.5 1-3 2-3 0.5 0-1 2-1 3-1z"/>
  <path d="m148.52 5.8066c-1.1682 0.0061798-2.2812 0.49024-2.5156 1.1934v1.5c0.5-1 3.5-2 4-0.5v1c-1 0-4.5-0.5-4.5 2 0 2 3 3 4.5 1v1h1.5v-5c-0.26562-1.5937-1.6604-2.2004-2.9844-2.1934zm1.4844 4.1934v0.5c-0.5 1-3 2-3 0.5 0-1 2-1 3-1z"/>
  <path d="m144 13v2h16v-2h-1v1h-14v-1z"/>
  <path d="m153 3.5v9.5h1.5v-0.5293c0.48253 0.30126 1.163 0.5293 1.5 0.5293 2.5 0 3-2 3-3.5 0-2.703-2.8403-4.1869-4.5-1.8945v-4.1055h-1.5zm3.3438 4.4766c0.68225-0.0065918 1.1562 0.67969 1.1562 1.5234 0 1.5-0.71648 2.5-1.5 2.5-1 0-1.5-1-1.5-1.5v-1c0.65625-1.0937 1.3131-1.5183 1.8438-1.5234z"/>
  <rect x="162" y="10" width="5" height="5" rx="1" ry="2"/>
  <path d="m169.5 1 0.36133 2.8945-2.3262-1.7598-1 1.7305 2.6875 1.1348-2.6875 1.1348 1 1.7305 2.3262-1.7598-0.36133 2.8945h2l-0.36133-2.8945 2.3262 1.7598 1-1.7305-2.6875-1.1348 2.6875-1.1348-1-1.7305-2.3262 1.7598 0.36133-2.8945h-2z"/>
  <path d="m18 1c-0.554 0-1 0.446-1 1v12c0 0.554 0.446 1 1 1h12c0.554 0 1-0.446 1-1s-0.446-1-1-1h-11v-11c0-0.554-0.446-1-1-1zm7 2c-0.554 0-1 0.446-1 1v7c0 0.554 0.446 1 1 1h1c0.554 0 1-0.446 1-1v-7c0-0.554-0.446-1-1-1zm-4 2c-0.554 0-1 0.446-1 1v5c0 0.554 0.446 1 1 1h1c0.554 0 1-0.446 1-1v-5c0-0.554-0.446-1-1-1zm8 2c-0.554 0-1 0.446-1 1v3c0 0.554 0.446 1 1 1h1c0.554 0 1-0.446 1-1v-3c0-0.554-0.446-1-1-1z"/>
  <path d="m8 0c-1.1046 0-2 0.89543-2 2v2h-3c-0.55228 0-1 0.44772-1 1v2h2c1.1046 0 2 0.89543 2 2s-0.89543 2-2 2h-2v3c0 0.55228 0.44772 1 1 1h10c0.55228 0 1-0.44772 1-1v-9c0-0.55228-0.44772-1-1-1h-3v-2c0-1.1046-0.89543-2-2-2z"/>
  <path d="m120 16h-1.75l-0.25-1h-3l-0.25 1h-1.75l2.5-7h2zm-2.5-2.5-1-3-1 3z"/>
  <path d="m119 7h-5v-1.5l3-4h-3v-1.5h5v1.5l-3 4h3z"/>
  <path d="m123.5 0.033203a0.5 0.5 0 0 0-0.5 0.5v13.158l-2.0703-3.4492a0.5 0.5 0 0 0-0.6875-0.17188 0.5 0.5 0 0 0-0.17188 0.6875l3 5a0.50005 0.50005 0 0 0 0.85938 0l3-5a0.5 0.5 0 0 0-0.17188-0.6875 0.5 0.5 0 0 0-0.6875 0.17188l-2.0703 3.4492v-13.158a0.5 0.5 0 0 0-0.5-0.5z"/>
  <path d="m40 9c-6 0-7 4-7 5v1a1 1 0 0 0 1 1h12a1 1 0 0 0 1-1v-1c0-1-1-5-7-5z"/>
  <path d="m40 0a4 4 0 0 0-4 4 4 4 0 0 0 4 4 4 4 0 0 0 4-4 4 4 0 0 0-4-4z"/>
  <path d="m80.684 3.5508a1 1 0 0 0-0.57812 0.50195 1 1 0 0 0 0.44726 1.3418l7 3.5a1.0001 1.0001 0 0 0 0.89453 0l7-3.5a1 1 0 0 0 0.44726-1.3418 1 1 0 0 0-1.3418-0.44727l-6.5527 3.2773-6.5527-3.2773a1 1 0 0 0-0.76367-0.054687z"/>
  <path d="m80.684 8.5508a1 1 0 0 0-0.57812 0.50195 1 1 0 0 0 0.44726 1.3418l7 3.5a1.0001 1.0001 0 0 0 0.89453 0l7-3.5a1 1 0 0 0 0.44726-1.3418 1 1 0 0 0-1.3418-0.44727l-6.5527 3.2773-6.5527-3.2773a1 1 0 0 0-0.76367-0.054687z"/>
</svg>
