<svg xmlns="http://www.w3.org/2000/svg" height="12" width="12" xmlns:v="https://vecta.io/nano"><path d="M4 7.5l7-5" fill="#1a1a1a"/><path d="M5 2.5v-1a.5.5 45 0 0-.5-.5h-3A1.5 1.5 135 0 0 0 2.5v8A1.5 1.5 45 0 0 1.5 12h8a1.5 1.5 135 0 0 1.5-1.5v-3a.5.5 45 0 0-.5-.5h-1a.5.5 135 0 0-.5.5V10H2V3h2.5a.5.5 135 0 0 .5-.5zm-.5 5l6-6"/><path d="M6 .5v1a.5.5 45 0 0 .5.5h2.086l-4.44 4.44a.5.5 90 0 0 0 .707l.707.707a.5.5 0 0 0 .707 0L10 3.414V5.5a.5.5 45 0 0 .5.5h1a.5.5 135 0 0 .5-.5V1a1 1 45 0 0-1-1H6.5a.5.5 135 0 0-.5.5z"/></svg>